


 
http://www.imdb.com/title/tt1408101/


After the crew of the Enterprise find an unstoppable force of terror from within their own organization, Captain Kirk leads a manhunt to a war-zone world to capture a one man weapon of mass destruction. 



Director:
 J.J. Abrams 

Writers:
 Roberto Orci, Alex Kurtzman

Stars:
 Chris Pine, Zachary Quinto, Zoe Saldana

Genres:
  Action |  Adventure |  Sci-Fi 

Country:
 USA 

Language:
 English | Klingon 







Format                                   : AVI
Format/Info                              : Audio Video Interleave
Format profile                           : OpenDML
Format settings                          : rec
File size                                : 1.42 GiB
Duration                                 : 2h 2mn
Overall bit rate                         : 1 659 Kbps
Writing application                      : AVI-Mux GUI 1.17.8.3, Feb 16 201019:42:50

Video
ID                                       : 0
Format                                   : MPEG-4 Visual
Format profile                           : Advanced Simple@L5
Format settings, BVOP                    : 4
Format settings, QPel                    : No
Format settings, GMC                     : No warppoints
Format settings, Matrix                  : Default (MPEG)
Codec ID                                 : XVID
Codec ID/Hint                            : XviD
Duration                                 : 2h 2mn
Bit rate                                 : 1 462 Kbps
Width                                    : 720 pixels
Height                                   : 320 pixels
Display aspect ratio                     : 2.25:1
Frame rate                               : 25.000 fps
Color space                              : YUV
Chroma subsampling                       : 4:2:0
Bit depth                                : 8 bits
Scan type                                : Progressive
Compression mode                         : Lossy
Bits/(Pixel*Frame)                       : 0.254
Stream size                              : 1.25 GiB (88%)
Writing library                          : XviD 1.2.1 (UTC 2008-12-04)

Audio
ID                                       : 1
Format                                   : AC-3
Format/Info                              : Audio Coding 3
Mode extension                           : CM (complete main)
Format settings, Endianness              : Big
Codec ID                                 : 2000
Duration                                 : 2h 2mn
Bit rate mode                            : Constant
Bit rate                                 : 192 Kbps
Channel(s)                               : 2 channels
Channel positions                        : Front: L R
Sampling rate                            : 48.0 KHz
Bit depth                                : 16 bits
Compression mode                         : Lossy
Stream size                              : 168 MiB (12%)
Alignment                                : Aligned on interleaves
Interleave, duration                     : 64 ms (1.60 video frames)
Interleave, preload duration             : 192 ms
Title                                    : NEW AUDiO -JUSTiCE


info



   	http://addpix.net/viewer.php?file=21143688663573305302.png



screens


    	http://addpix.net/viewer.php?file=52848687162113610045.jpg
    	http://addpix.net/viewer.php?file=90673740974806015788.jpg
    	http://addpix.net/viewer.php?file=55158140490542571830.jpg
    	http://addpix.net/viewer.php?file=47434443798913208138.jpg
    	http://addpix.net/viewer.php?file=43147590260699957868.jpg